# xmcd
#
# Track frame offsets: 
#        150
#        27723
#        51628
#        79960
#        112550
#        138259
#        168949
#        199979
#        222749
#        252588
#        284560
#
# Disc length: 4172 seconds
#
# Revision: 2
# Processed by: cddbd v1.5.2PL0 Copyright (c) Steve Scherf et al.
# Submitted via: ExactAudioCopy v0.99pb5
#
DISCID=b0104a0b
DTITLE=Quintetto Lo Greco - The Right Spirit
DYEAR=2007
DGENRE=Jazz
TTITLE0=Steppin' to Bop
TTITLE1=Legend Generation
TTITLE2=Blues Inflected
TTITLE3=Updated Sound
TTITLE4=Soft Blowing
TTITLE5=Over Power
TTITLE6=Flowing Lines
TTITLE7=Idols
TTITLE8=Invitation
TTITLE9=From Time to Time
TTITLE10=The Right Spirit
EXTD=YEAR: 2007
EXTT0=
EXTT1=
EXTT2=
EXTT3=
EXTT4=
EXTT5=
EXTT6=
EXTT7=
EXTT8=
EXTT9=
EXTT10=
PLAYORDER=
